HIERARCHY
ROOT Hips
{
    OFFSET 0.0 0.0 0.0
    CHANNELS 6 Xposition Yposition Zposition Zrotation Xrotation Yrotation
    JOINT LeftHipJoint
    {
        OFFSET 0.1 0.0 0.0
        CHANNELS 3 Zrotation Xrotation Yrotation
        JOINT LeftUpLeg
        {
            OFFSET 124.9219290205032 0.0 0.0
            CHANNELS 3 Zrotation Xrotation Yrotation
            JOINT LeftLeg
            {
                OFFSET 0.0 0.0 -422.3272766653726
                CHANNELS 3 Zrotation Xrotation Yrotation
                JOINT LeftFoot
                {
                    OFFSET 0.0 0.0 -396.5599156544275
                    CHANNELS 3 Zrotation Xrotation Yrotation
                    End Site
                    {
                        OFFSET 0.0 -0.1 0.0
                    }
                }
            }
        }
    }
    JOINT LowerBack
    {
        OFFSET 0.0 0.0 0.1
        CHANNELS 3 Zrotation Xrotation Yrotation
        JOINT Spine
        {
            OFFSET 0.0 0.0 214.17725745098295
            CHANNELS 3 Zrotation Xrotation Yrotation
            JOINT Spine1
            {
                OFFSET 0.0 0.0 250.33303891275483
                CHANNELS 3 Zrotation Xrotation Yrotation
                JOINT LeftShoulder
                {
                    OFFSET 0.1 0.0 0.0
                    CHANNELS 3 Zrotation Xrotation Yrotation
                    JOINT LeftArm
                    {
                        OFFSET 136.31944525597208 0.0 0.0
                        CHANNELS 3 Zrotation Xrotation Yrotation
                        JOINT LeftForeArm
                        {
                            OFFSET 264.5761596239965 0.0 0.0
                            CHANNELS 3 Zrotation Xrotation Yrotation
                            JOINT LeftHand
                            {
                                OFFSET 244.37271456328122 0.0 0.0
                                CHANNELS 3 Zrotation Xrotation Yrotation
                                End Site
                                {
                                    OFFSET 0.1 0.0 0.0
                                }
                            }
                        }
                    }
                }
                JOINT Neck
                {
                    OFFSET 0.0 0.0 0.1
                    CHANNELS 3 Zrotation Xrotation Yrotation
                    JOINT Neck1
                    {
                        OFFSET 0.0 0.0 102.93134191934999
                        CHANNELS 3 Zrotation Xrotation Yrotation
                        End Site
                        {
                            OFFSET 0.0 0.0 116.06645164301554
                        }
                    }
                }
                JOINT RightShoulder
                {
                    OFFSET -0.1 0.0 0.0
                    CHANNELS 3 Zrotation Xrotation Yrotation
                    JOINT RightArm
                    {
                        OFFSET -136.31944525597208 0.0 0.0
                        CHANNELS 3 Zrotation Xrotation Yrotation
                        JOINT RightForeArm
                        {
                            OFFSET -264.5761596239965 0.0 0.0
                            CHANNELS 3 Zrotation Xrotation Yrotation
                            JOINT RightHand
                            {
                                OFFSET -244.37271456328122 0.0 0.0
                                CHANNELS 3 Zrotation Xrotation Yrotation
                                End Site
                                {
                                    OFFSET -0.1 0.0 0.0
                                }
                            }
                        }
                    }
                }
            }
        }
    }
    JOINT RightHipJoint
    {
        OFFSET -0.1 0.0 0.0
        CHANNELS 3 Zrotation Xrotation Yrotation
        JOINT RightUpLeg
        {
            OFFSET -124.9219290205032 0.0 0.0
            CHANNELS 3 Zrotation Xrotation Yrotation
            JOINT RightLeg
            {
                OFFSET 0.0 0.0 -422.3272766653726
                CHANNELS 3 Zrotation Xrotation Yrotation
                JOINT RightFoot
                {
                    OFFSET 0.0 0.0 -396.5599156544275
                    CHANNELS 3 Zrotation Xrotation Yrotation
                    End Site
                    {
                        OFFSET 0.0 -0.1 0.0
                    }
                }
            }
        }
    }
}
MOTION
Frames: 9
Frame Time: 0.03333333333333333
0.0 0.0 813.5480242507865 24.075147180693797 -0.8213698644364074 3.448381866733997 0.0 0.0 -9.93923337957349e-17 -0.8635374246310042 -12.364842424321509 -0.11386411414740576 1.6809533191273596 23.171452553968837 -0.03037387513223035 0.0 0.0 -7.951386703658792e-16 0.0 0.0 -9.93923337957349e-17 0.33699842059786705 4.877079806480536 1.2427839254943842 0.08979712625552023 -1.790619190686883e-15 -1.9864441070703477e-15 3.1805546814635164e-15 -2.758691436281349e-33 -9.939233379573489e-17 -19.780584388109908 11.531891844556212 73.41854336598932 -47.48148706242492 -1.4496409248659835e-14 9.259860435633999e-15 -6.3611093629270335e-15 -3.1805546814635168e-15 -1.7655625192200634e-31 3.1805546814635164e-15 -2.758691436281349e-33 -9.939233379573489e-17 -2.0462866803994233 -3.2976934665824844 -4.2411251194431046 3.1805546814635164e-15 -2.758691436281349e-33 -9.939233379573489e-17 23.472521123940673 11.73079122566958 -83.80053650708012 27.28261664406852 0.0 0.0 0.0 0.0 -3.1805546814635168e-15 0.0 0.0 -9.93923337957349e-17 -0.8619332314642345 -12.279000992118277 -6.531785561173683 -1.2847539145202602 27.241634866640467 1.223031629027154 0.0 0.0 0.0
0.0 0.0 813.5480242507865 24.10003032604207 -0.8367442245786152 3.58625958015958 0.0 0.0 4.969616689786745e-17 -0.8978060258699857 -12.363246698666027 -0.44476194833293453 1.602414259602498 23.11161100843768 0.11447495797463546 0.0 0.0 -7.951386703658792e-16 0.0 0.0 4.969616689786745e-17 0.35105095891412896 4.887165015747341 1.2210163856722585 0.05804367749153846 7.946854645963007e-16 -8.949336483097313e-16 0.0 0.0 2.981770013872047e-16 -19.591002423796713 11.445651300313907 72.80114713782068 -49.891562075774424 1.143546194782034e-14 -1.704299791176136e-14 0.0 0.0 7.951386703658792e-16 0.0 0.0 2.981770013872047e-16 -2.11062405804483 -3.3995573611345042 -4.4532493853458135 0.0 0.0 2.981770013872047e-16 23.996610217751385 11.79621616460056 -83.73347697526401 27.38921815052992 1.3944707960601517e-14 -9.945201569859812e-15 3.1805546814635168e-15 -4.4139062980501586e-32 -1.5902773407317584e-15 0.0 0.0 4.969616689786745e-17 -0.8916560615381653 -12.224173076549746 -6.709779357474625 -1.2887067620197112 27.128446922097858 1.1269045725800673 0.0 0.0 0.0
0.0 0.0 813.5480242507865 24.179477442849837 -0.9205885741829186 3.756761422278269 0.0 0.0 9.93923337957349e-17 -0.9239731376023317 -12.240392304577734 -0.8234072394576453 1.4915559324056569 22.858305163085035 0.2493666673444179 -5.517382872562698e-33 -1.5902773407317584e-15 -3.975693351829396e-16 0.0 0.0 9.93923337957349e-17 0.36500918082942246 4.888409010018441 1.2395182265958526 0.24593394267181454 -6.006188999109343e-16 -1.9865622166546796e-15 0.0 0.0 -2.981770013872047e-16 -19.58489593471299 11.873871225873291 72.26586927464538 -52.96496802299009 5.421061505436208e-16 6.044371066891181e-15 0.0 0.0 -7.951386703658792e-16 0.0 0.0 -2.981770013872047e-16 -2.376951907379636 -3.5117298002343156 -4.666540005856996 0.0 0.0 -2.981770013872047e-16 24.83817784848643 11.68449581519788 -83.74452281500075 27.288553926109564 -3.930779257340331e-15 1.077293086830118e-14 0.0 0.0 1.5902773407317584e-15 0.0 0.0 9.93923337957349e-17 -0.9125487527318535 -12.044149053695442 -6.991582237812633 -1.337541884194775 26.910479905281637 1.1818698622660482 0.0 0.0 0.0
0.0 0.0 813.5480242507865 24.296739817608508 -0.98346950155413 3.968529614933596 0.0 0.0 -4.969616689786745e-17 -0.9538674014741294 -12.167710465549575 -1.2180425328989093 1.390988360414118 22.805089329015196 0.23397969395848828 3.1805546814635164e-15 -1.987846675914698e-16 -3.9756933518293955e-16 0.0 0.0 -4.969616689786745e-17 0.3730273079789832 4.811397068555364 1.2001877065023006 0.27647225349606375 5.932348512044733e-16 -1.2935353860160832e-15 0.0 -3.9756933518293955e-16 0.0 -19.393035202778297 11.621753170992648 71.5336414461299 -55.928049826531364 -2.0506975774372564e-15 3.862650123361851e-15 0.0 0.0 -1.5902773407317584e-15 0.0 -3.9756933518293955e-16 0.0 -2.4536703454778563 -3.5624981480401514 -4.830536161642502 0.0 -3.9756933518293955e-16 0.0 25.801728034278966 11.660182531066374 -83.73245696083495 27.324214170703243 -1.1696648670250543e-14 1.9208977431755733e-14 0.0 0.0 1.5902773407317584e-15 0.0 0.0 -4.969616689786745e-17 -0.935051846331292 -11.89261431253352 -7.28787311827409 -1.3847784538208623 26.579811951084785 1.2553357335747506 0.0 0.0 0.0
0.0 0.0 813.5480242507865 24.34264699716063 -1.287128744173759 4.042411907670741 -3.1805546814635168e-15 2.9817700138720475e-16 -8.448348372637467e-16 -0.9417580140431339 -11.652575556616329 -1.349098174515276 1.3904856240774 22.766291823969325 0.21165397714492276 0.0 0.0 0.0 -3.1805546814635168e-15 2.9817700138720475e-16 -8.448348372637467e-16 0.38949549245835974 4.866987849966072 1.2233099079157497 0.24877790838426878 3.96921057457564e-16 -2.9903941977745823e-16 0.0 0.0 0.0 -19.51070703175287 11.012594784527352 70.9122043782031 -58.51549424368413 3.9951604229822066e-15 5.883734664610065e-15 0.0 0.0 1.5902773407317584e-15 0.0 0.0 0.0 -2.410609318490048 -3.5802138752815265 -4.933492981462273 0.0 0.0 0.0 27.064993236853876 11.567987787520774 -83.52040713137978 27.684555283629077 -7.742659820596391e-15 8.459212963725152e-15 0.0 0.0 1.5902773407317588e-15 -3.1805546814635168e-15 2.9817700138720475e-16 -8.448348372637467e-16 -0.9221755728806638 -11.378563283775366 -7.330530123269189 -1.3318695298674104 26.476398135101505 1.1205055755506828 0.0 -2.4848083448933725e-17 0.0
0.0 0.0 813.5480242507865 24.29614128416338 -1.3277192565155054 4.1289627273780205 -7.758819664541295e-34 -9.93923337957349e-17 -8.945310041616142e-16 -0.9701175136415431 -11.558817452684556 -1.4845668608268812 1.4285663571462877 23.06406959025397 0.1643269082218013 0.0 0.0 0.0 -7.758819664541295e-34 -9.93923337957349e-17 -8.945310041616142e-16 0.4051541890254742 4.874916533720838 1.1637668859877737 0.06284846461410931 -5.971170859921829e-16 -1.3911653897521929e-15 0.0 0.0 3.975693351829396e-16 -19.027565781004757 9.421429386702304 69.9875280989668 -62.02978398100145 1.4967301360782807e-15 3.683196509492204e-15 0.0 0.0 -1.5902773407317584e-15 0.0 0.0 3.975693351829396e-16 -2.052609577557278 -3.770921666649268 -4.889135837132051 0.0 0.0 3.975693351829396e-16 28.31951413571367 11.607839469081155 -83.21148212656789 28.556144206298583 -1.6980368327560923e-14 -2.2425444994405528e-15 -4.4139062980501586e-32 3.1805546814635168e-15 1.5902773407317584e-15 -7.758819664541295e-34 -9.93923337957349e-17 -8.945310041616142e-16 -0.9483486024700516 -11.272624840237063 -7.235129120166433 -1.201765343931851 26.585202285364577 0.6821488685092896 0.0 0.0 0.0
0.0 0.0 813.5480242507865 24.161460625308564 -1.484780869011995 4.129324128341903 3.1805546814635164e-15 3.9756933518293955e-16 -1.1034765745125397e-32 -0.9575115137596465 -11.280304559743795 -1.5530408776331637 1.4367837818460145 23.279457530190225 0.18843884475963563 0.0 0.0 3.975693351829396e-16 3.1805546814635164e-15 3.9756933518293955e-16 -1.1034765745125397e-32 0.41421230918714974 4.92463202265453 1.2461871335625678 -0.3008810282124542 -5.932202783811612e-16 -1.1942697285130688e-15 0.0 0.0 9.93923337957349e-17 -18.352956702868774 7.424285219551684 68.66374771833681 -65.62675045649226 7.432837994329518e-15 -1.1527596126890832e-14 0.0 0.0 1.5902773407317584e-15 0.0 0.0 9.93923337957349e-17 -1.6093229138047374 -3.965954693881985 -4.909628249563632 0.0 0.0 9.93923337957349e-17 29.14002656429573 11.48738053539916 -82.84358183237842 29.59458490611711 -1.1487978290659315e-14 6.3243285954788585e-15 0.0 0.0 -3.1805546814635168e-15 3.1805546814635164e-15 3.9756933518293955e-16 -1.1034765745125397e-32 -0.9434193064525236 -11.086702871518545 -7.122446339684435 -1.125391148257062 26.737536842236878 0.4111834071715108 0.0 0.0 0.0
0.0 0.0 813.5480242507865 24.10983013310015 -1.5618283441744862 4.129933459213907 0.0 0.0 0.0 -0.9416074771282051 -11.12562419882237 -1.526709609460357 1.4474395540195768 23.364243163463183 0.09690997205433036 0.0 0.0 7.951386703658791e-16 0.0 0.0 0.0 0.4193644788450215 4.998506571909894 1.307398164362052 -0.6939649118671894 2.0179059705595213e-16 -4.957487261136666e-16 0.0 0.0 -9.93923337957349e-17 -17.676198720314975 5.5132930404804545 67.68530639638234 -68.46342047291658 7.0483628717794236e-15 9.487998928218746e-16 0.0 0.0 -6.3611093629270335e-15 0.0 0.0 -9.93923337957349e-17 -1.04193518829945 -4.187778289816479 -4.915644058756279 0.0 0.0 -9.93923337957349e-17 29.60612779156514 11.644978627112133 -82.6206832581721 30.761711057422662 5.289689259206488e-15 -4.753822456711334e-15 0.0 0.0 -3.1805546814635168e-15 0.0 0.0 0.0 -0.9204500321022192 -10.850931890751712 -7.074455106345016 -1.1064110066817645 26.67302170309356 0.29638235370449145 0.0 0.0 0.0
0.0 0.0 813.5480242507865 23.907024266456876 -1.7062537873859855 4.065546814275531 3.180554681463516e-15 2.758691436281349e-33 9.939233379573487e-17 -0.928175433495591 -10.949995515803835 -1.4515040003506618 1.4886103434434979 23.444465570088926 0.08097093987051178 -5.517382872562698e-33 -1.5902773407317584e-15 -3.975693351829396e-16 3.180554681463516e-15 2.758691436281349e-33 9.939233379573487e-17 0.4237249839525628 5.04040557751627 1.4325528925417803 -1.0374213365735923 -7.946561819287228e-16 -5.689258860364737e-17 0.0 0.0 -1.4908850069360235e-16 -17.1402462489402 4.163523259373436 66.95979318157575 -70.52777676453923 1.549353977017054e-15 -2.1911580752102084e-15 1.7655625192200634e-31 -3.1805546814635176e-15 6.361109362927035e-15 0.0 0.0 -1.4908850069360235e-16 -0.5099226849515366 -4.313902467118047 -4.975108671035379 0.0 0.0 -1.4908850069360235e-16 30.136634643168232 11.997510741216878 -82.60452376474201 31.268719888665444 -9.554360019402766e-15 -1.0537208655769692e-14 -6.3611093629270335e-15 -8.827812596100317e-32 1.5902773407317584e-15 3.180554681463516e-15 2.758691436281349e-33 9.939233379573487e-17 -0.9060876859969728 -10.6650851718558 -7.077660558221537 -1.1135525204901346 26.855354414260283 0.43042921835866993 5.517382872562698e-33 -1.5902773407317584e-15 3.975693351829396e-16
